<?xml version="1.0" standalone="no"?>
<!DOCTYPE svg PUBLIC "-//W3C//DTD SVG 20010904//EN"
 "http://www.w3.org/TR/2001/REC-SVG-20010904/DTD/svg10.dtd">
<svg version="1.0" xmlns="http://www.w3.org/2000/svg"
 width="1628.494579pt" height="778.833976pt" viewBox="0 0 1628.494579 778.833976"
 preserveAspectRatio="xMidYMid meet">

<g transform="translate(-185.000000,1393.000000) scale(0.100000,-0.100000)"
fill="#000000" stroke="none">
<path d="M6441 13899 c-61 -60 -53 -88 67 -221 80 -89 152 -191 152 -215 0
-19 -11 -20 -272 -27 -476 -12 -854 -40 -1268 -96 -116 -15 -376 -58 -425 -69
-22 -5 -71 -16 -110 -25 -120 -26 -337 -76 -400 -92 -33 -8 -78 -20 -100 -25
-138 -33 -625 -196 -762 -255 -17 -8 -34 -14 -37 -14 -3 0 -30 -11 -60 -25
-30 -14 -57 -25 -60 -25 -7 0 -94 -40 -226 -103 -306 -147 -895 -509 -1032
-636 -48 -44 -58 -59 -58 -86 0 -36 32 -70 76 -81 13 -3 96 4 184 17 245 35
300 22 545 -128 254 -156 520 -388 674 -588 149 -193 288 -445 342 -620 25
-78 49 -177 49 -197 0 -39 15 -50 91 -68 248 -61 473 -174 684 -345 203 -164
462 -477 521 -629 10 -26 31 -62 46 -78 25 -27 32 -29 69 -23 50 9 73 18 159
67 105 58 207 80 406 85 391 11 790 -89 1211 -304 356 -182 648 -417 823 -662
86 -120 128 -223 165 -402 30 -149 59 -186 140 -174 25 4 53 14 61 23 8 8 35
56 59 106 74 155 147 227 280 278 51 19 78 23 185 22 113 0 135 -3 225 -32
291 -94 516 -312 684 -662 100 -209 154 -359 212 -590 35 -138 48 -197 90
-410 6 -30 17 -84 24 -120 7 -36 19 -92 25 -125 24 -120 40 -163 66 -184 43
-34 103 -22 141 29 18 23 39 116 82 355 27 150 75 377 93 445 11 41 24 89 28
105 96 360 190 565 358 783 148 191 310 314 497 378 73 25 93 27 230 28 133 0
157 -3 208 -23 116 -45 202 -137 280 -295 26 -54 56 -100 68 -107 30 -16 96
-5 123 20 15 14 28 48 40 103 63 287 149 446 363 673 78 84 252 218 410 316
267 167 657 328 928 384 222 45 474 57 662 29 127 -18 163 -29 291 -90 105
-50 146 -57 184 -32 13 9 59 74 102 145 128 211 211 319 346 453 146 145 314
269 470 347 58 29 111 53 118 53 7 0 40 9 73 20 33 11 94 27 136 35 41 8 81
19 88 25 7 6 17 29 23 53 6 23 20 80 32 127 67 265 270 615 495 851 259 273
611 518 803 558 76 16 143 14 260 -9 56 -11 121 -20 143 -20 85 0 136 58 105
119 -29 56 -209 187 -514 375 -221 136 -291 175 -547 301 -330 162 -539 245
-900 358 -57 18 -312 86 -365 98 -131 28 -170 38 -177 42 -5 3 -80 19 -168 36
-240 47 -252 49 -360 66 -55 9 -125 20 -155 25 -65 11 -237 34 -370 50 -233
26 -928 70 -1128 70 -86 0 -104 3 -109 17 -11 28 42 112 142 228 53 61 98 120
101 133 8 30 -9 67 -41 88 -38 25 -82 11 -177 -56 -81 -58 -307 -249 -418
-355 -65 -61 -177 -145 -195 -145 -6 0 -22 9 -34 19 -35 30 -110 45 -162 31
-61 -16 -86 -34 -109 -80 -25 -49 -25 -86 0 -127 26 -44 68 -63 138 -63 48 0
62 -4 79 -22 50 -55 60 -365 19 -565 -25 -121 -89 -325 -133 -423 -100 -221
-171 -348 -277 -490 -281 -377 -634 -670 -1042 -866 -137 -65 -320 -132 -331
-120 -4 4 -6 38 -5 76 5 112 -40 253 -101 318 l-22 24 30 24 c95 77 122 104
163 158 49 67 95 153 116 218 90 271 102 622 29 870 -28 96 -55 90 -186 -46
-148 -152 -281 -347 -417 -609 -90 -173 -79 -166 -198 -123 -171 63 -472 58
-659 -11 -23 -8 -49 -13 -57 -10 -7 3 -26 32 -41 64 -92 195 -168 330 -258
453 -111 151 -302 350 -336 350 -50 0 -93 -211 -95 -460 -1 -168 26 -365 64
-464 55 -144 133 -269 206 -333 76 -65 84 -73 84 -83 0 -5 -13 -30 -30 -56
-44 -71 -60 -137 -60 -258 0 -87 -3 -108 -16 -113 -18 -7 -299 110 -434 180
-379 199 -751 534 -995 897 -114 170 -260 476 -314 660 -12 41 -26 86 -31 100
-36 104 -45 257 -25 434 21 194 38 226 119 226 45 0 120 32 140 61 24 35 21
109 -7 150 -49 73 -139 88 -233 38 -48 -25 -62 -28 -82 -20 -36 17 -119 81
-227 177 -231 205 -484 394 -526 394 -10 0 -31 -14 -48 -31z m7489 -730 c359
-16 589 -33 795 -58 308 -39 338 -43 475 -66 52 -9 118 -20 145 -24 98 -16
403 -86 505 -116 25 -7 72 -21 105 -30 81 -23 215 -65 240 -76 11 -4 61 -23
110 -42 398 -153 586 -242 569 -268 -4 -8 -10 -7 -17 0 -6 6 -19 11 -28 11
-10 0 -71 17 -136 38 -65 21 -158 51 -208 67 -49 15 -117 36 -150 47 -81 27
-230 69 -365 103 -14 3 -41 10 -60 15 -19 5 -66 17 -105 25 -38 9 -97 22 -130
30 -162 38 -475 87 -680 105 -66 6 -189 17 -274 25 -210 20 -691 20 -865 0
-281 -33 -370 -69 -370 -150 0 -27 12 -47 70 -110 91 -100 171 -201 242 -305
32 -47 94 -137 137 -200 120 -175 297 -475 390 -659 98 -194 155 -317 155
-335 0 -6 4 -16 8 -21 5 -6 21 -44 37 -85 15 -41 33 -88 40 -105 78 -190 198
-555 240 -730 9 -38 20 -86 25 -105 7 -32 22 -103 50 -245 24 -120 40 -251 40
-329 0 -83 -1 -85 -30 -106 -31 -22 -58 -21 -64 2 -4 15 -33 145 -46 203 -27
125 -85 360 -105 420 -7 22 -21 67 -30 100 -21 72 -25 86 -75 245 -38 119 -81
241 -100 285 -5 11 -30 72 -55 135 -26 63 -52 129 -60 145 -7 17 -25 59 -40
94 -35 84 -166 339 -244 476 -66 114 -305 476 -367 555 -20 25 -62 79 -94 120
-32 41 -97 114 -143 163 -70 73 -89 87 -115 87 -49 0 -55 -21 -63 -260 -10
-281 -24 -442 -48 -580 -6 -30 -17 -98 -26 -150 -9 -52 -20 -113 -25 -135 -5
-22 -16 -76 -25 -120 -9 -44 -23 -109 -32 -145 -8 -36 -19 -85 -24 -110 -15
-66 -37 -154 -64 -245 -12 -44 -30 -107 -40 -140 -27 -95 -37 -126 -60 -195
-32 -91 -134 -369 -150 -405 -7 -16 -20 -50 -28 -75 -18 -52 -82 -207 -125
-300 -16 -36 -57 -130 -90 -210 -33 -80 -73 -174 -90 -210 -16 -36 -50 -113
-76 -172 -142 -328 -243 -511 -279 -506 -64 10 -54 45 255 813 132 329 155
388 168 425 5 14 34 97 65 185 113 321 185 545 261 815 9 30 19 66 24 80 5 14
11 39 14 55 3 17 12 62 21 100 15 71 46 224 65 325 12 64 26 168 40 295 5 50
14 124 19 165 28 205 -2 726 -66 1175 -14 101 -14 112 1 140 29 52 49 60 191
65 164 6 475 2 765 -11z m-6935 -4 c17 -9 38 -27 45 -40 13 -24 12 -30 -21
-255 -30 -206 -58 -574 -59 -765 0 -180 29 -515 60 -685 26 -143 93 -460 116
-545 14 -49 32 -115 40 -145 8 -30 19 -71 24 -90 28 -107 201 -640 260 -800
17 -47 38 -105 46 -130 9 -25 22 -58 29 -75 17 -40 41 -102 78 -200 34 -92 68
-178 120 -305 30 -74 62 -155 70 -180 8 -25 21 -58 27 -75 7 -16 16 -39 20
-50 4 -11 15 -38 23 -60 71 -184 77 -209 51 -219 -35 -14 -53 -5 -82 42 -28
44 -132 245 -132 256 0 2 -16 40 -36 83 -20 43 -42 92 -49 108 -8 17 -26 57
-40 90 -15 33 -35 80 -45 105 -10 25 -31 74 -48 110 -16 36 -39 88 -51 115
-12 28 -26 59 -31 70 -19 40 -162 401 -177 445 -8 25 -21 59 -27 75 -18 42
-24 59 -147 430 -136 407 -150 456 -215 755 -69 318 -110 659 -120 995 -6 232
-13 279 -45 296 -16 8 -30 4 -70 -21 -151 -98 -541 -638 -742 -1030 -140 -273
-176 -348 -237 -495 -34 -82 -68 -163 -75 -180 -17 -38 -122 -356 -165 -495
-73 -241 -77 -256 -105 -390 -14 -69 -32 -152 -39 -185 -8 -33 -20 -93 -27
-134 -21 -124 -74 -174 -118 -113 -28 40 -28 149 0 309 11 65 24 143 29 173 9
60 12 75 64 290 34 141 113 388 196 620 23 63 45 126 50 140 64 202 391 839
573 1115 166 253 331 474 439 588 58 61 71 88 58 121 -11 31 -80 71 -145 86
-249 57 -816 74 -1150 35 -66 -7 -149 -16 -185 -20 -36 -3 -121 -14 -190 -25
-69 -11 -156 -25 -195 -30 -72 -11 -141 -24 -325 -61 -58 -12 -123 -25 -145
-29 -22 -4 -60 -12 -85 -19 -25 -7 -61 -16 -80 -21 -19 -5 -58 -16 -87 -24
-28 -9 -61 -16 -73 -16 -21 0 -52 -9 -195 -55 -38 -12 -97 -30 -130 -39 -65
-19 -150 -49 -203 -72 -18 -8 -43 -14 -55 -14 -12 -1 -33 -7 -47 -15 -27 -15
-70 -20 -70 -7 0 10 154 93 265 142 104 47 348 141 398 154 29 8 86 25 127 39
116 38 625 160 800 192 52 9 115 20 140 25 43 9 155 25 335 50 160 21 348 35
850 59 88 4 326 9 528 9 314 2 374 0 402 -13z"/>
</g>
</svg>
