<?xml version="1.0" encoding="utf-8"?>
<!-- Generator: Adobe Illustrator 26.3.1, SVG Export Plug-In . SVG Version: 6.00 Build 0)  -->
<svg version="1.1" id="Layer_1" xmlns="http://www.w3.org/2000/svg" xmlns:xlink="http://www.w3.org/1999/xlink" x="0px" y="0px"
	 viewBox="0 0 512 512" style="enable-background:new 0 0 512 512;" xml:space="preserve">
<style type="text/css">
	.st0{fill-rule:evenodd;clip-rule:evenodd;}
</style>
<g>
	<path class="st0" d="M315.45,25.6C540.5,179.82,467.72,349.89,467.72,349.89s64,72.83,38.12,136.51c0,0-26.39-44.6-70.66-44.6
		c-42.68,0-67.74,44.6-153.6,44.6C90.39,486.4,0,325.44,0,325.44c172.24,114.2,289.85,33.33,289.85,33.33
		C212.25,313.36,47.18,96.25,47.18,96.25C190.93,219.57,253.06,252.1,253.06,252.1C215.99,221.2,111.98,70.2,111.98,70.2
		c83.2,84.91,248.53,203.39,248.53,203.39C407.45,142.47,315.45,25.6,315.45,25.6"/>
</g>
</svg>
